<?xml version="1.0" encoding="UTF-8"?>
<svg width="192" height="192" viewBox="0 0 192 192" xmlns="http://www.w3.org/2000/svg">
  <!-- Background -->
  <rect width="192" height="192" rx="38" fill="#3b4e87"/>
  
  <!-- Notebook illustration -->
  <rect x="45" y="38" width="102" height="127" rx="4" fill="#eaf0f9"/>
  <rect x="52" y="45" width="87" height="112" rx="2" fill="white"/>
  
  <!-- Notebook lines -->
  <line x1="60" y1="60" x2="130" y2="60" stroke="#e0e0e5" stroke-width="1"/>
  <line x1="60" y1="75" x2="130" y2="75" stroke="#e0e0e5" stroke-width="1"/>
  <line x1="60" y1="90" x2="130" y2="90" stroke="#e0e0e5" stroke-width="1"/>
  <line x1="60" y1="105" x2="130" y2="105" stroke="#e0e0e5" stroke-width="1"/>
  <line x1="60" y1="120" x2="130" y2="120" stroke="#e0e0e5" stroke-width="1"/>
  <line x1="60" y1="135" x2="130" y2="135" stroke="#e0e0e5" stroke-width="1"/>
  
  <!-- Star/Sparkle (Moments) -->
  <path d="M142 33L148 43L157 44L149 51L152 62L142 57L133 62L135 51L127 44L137 43L142 33Z" fill="#ffc53d"/>
  
  <!-- Simple pencil -->
  <rect x="117" y="71" width="6" height="45" rx="1" transform="rotate(45 117 71)" fill="#3b4e87"/>
  <polygon points="99,89 103,85 107,89 103,93" fill="#ffc53d"/>
</svg>
